<?xml version="1.0" encoding="UTF-8" standalone="no"?>
<!-- Created with Inkscape (http://www.inkscape.org/) -->

<svg
   xmlns:dc="http://purl.org/dc/elements/1.1/"
   xmlns:cc="http://creativecommons.org/ns#"
   xmlns:rdf="http://www.w3.org/1999/02/22-rdf-syntax-ns#"
   xmlns:svg="http://www.w3.org/2000/svg"
   xmlns="http://www.w3.org/2000/svg"
   xmlns:sodipodi="http://sodipodi.sourceforge.net/DTD/sodipodi-0.dtd"
   xmlns:inkscape="http://www.inkscape.org/namespaces/inkscape"
   width="283.5394"
   height="234.96306"
   id="svg2"
   version="1.1"
   inkscape:version="0.48.4 r9939"
   sodipodi:docname="object_octopus.svg">
  <defs
     id="defs4" />
  <sodipodi:namedview
     id="base"
     pagecolor="#ffffff"
     bordercolor="#666666"
     borderopacity="1.0"
     inkscape:pageopacity="0.0"
     inkscape:pageshadow="2"
     inkscape:zoom="2.8"
     inkscape:cx="152.76297"
     inkscape:cy="119.70217"
     inkscape:document-units="px"
     inkscape:current-layer="layer1"
     showgrid="false"
     fit-margin-top="0"
     fit-margin-left="0"
     fit-margin-right="0"
     fit-margin-bottom="0"
     inkscape:window-width="1600"
     inkscape:window-height="875"
     inkscape:window-x="0"
     inkscape:window-y="25"
     inkscape:window-maximized="0" />
  <metadata
     id="metadata7">
    <rdf:RDF>
      <cc:Work
         rdf:about="">
        <dc:format>image/svg+xml</dc:format>
        <dc:type
           rdf:resource="http://purl.org/dc/dcmitype/StillImage" />
        <dc:title></dc:title>
      </cc:Work>
    </rdf:RDF>
  </metadata>
  <g
     inkscape:label="Layer 1"
     inkscape:groupmode="layer"
     id="layer1"
     transform="translate(-165.62988,-391.72242)">
    <path
       sodipodi:type="arc"
       style="fill:#760080;fill-opacity:1;stroke:none"
       id="path2985"
       sodipodi:cx="316.68283"
       sodipodi:cy="453.8468"
       sodipodi:rx="62.124382"
       sodipodi:ry="62.124382"
       d="m 378.80721,453.8468 c 0,34.31035 -27.81403,62.12438 -62.12438,62.12438 -34.31035,0 -62.12438,-27.81403 -62.12438,-62.12438 0,-34.31035 27.81403,-62.12438 62.12438,-62.12438 34.31035,0 62.12438,27.81403 62.12438,62.12438 z" />
    <path
       style="fill:#760080;fill-opacity:1;stroke:none"
       d="m 105,84.926084 c 7.5,16.428576 -4.64286,26.428576 -4.64286,26.428576 0,0 -12.142854,14.28571 -32.142854,18.57142 -20,4.28572 -46.071429,-2.14285 -52.857143,26.42858 -6.7857144,28.57142 5.357143,58.92857 5.357143,58.92857 0,0 10.061955,-56.8044 25.357142,-57.14286 15.295188,-0.33846 24.642857,50.71428 24.642857,50.71428 0,0 6.842945,-53.85556 22.142854,-56.42857 15.946411,-2.68173 30.714291,54.64286 30.714291,54.64286 0,0 0.1284,-60.41912 16.42857,-62.49999 16.78572,-2.14286 24.28572,62.85714 24.28572,62.85714 0,0 9.28571,-63.21429 20.71428,-62.85715 11.42858,0.35715 21.42858,63.57143 21.42858,63.57143 0,0 12.14284,-56.42857 23.57142,-56.07143 11.42857,0.35715 20,58.57143 20,58.57143 0,0 7.5,-52.5 17.85714,-51.42857 10.35715,1.07143 13.57143,48.57143 13.57143,48.57143 0,0 16.07143,-32.14286 13.21429,-51.78572 -2.85715,-19.64285 -29.28572,-17.85714 -52.5,-36.42857 -23.21429,-18.57143 -25.35714,-26.071427 -22.5,-35.357142 C 222.5,74.926084 105,84.926084 105,84.926084 z"
       id="path3808"
       inkscape:connector-curvature="0"
       sodipodi:nodetypes="ccssczcscscscscscsssc"
       transform="translate(154.1861,391.72242)" />
    <path
       sodipodi:type="arc"
       style="fill:#26003f;fill-opacity:1;stroke:none"
       id="path3757"
       sodipodi:cx="253.21428"
       sodipodi:cy="415.21933"
       sodipodi:rx="37.142857"
       sodipodi:ry="19.285715"
       d="m 290.35714,415.21933 c 0,10.65121 -16.62943,19.28571 -37.14286,19.28571 -20.51343,0 -37.14286,-8.6345 -37.14286,-19.28571 0,-10.65121 16.62943,-19.28572 37.14286,-19.28572 20.51343,0 37.14286,8.63451 37.14286,19.28572 z"
       transform="matrix(0.24999999,0,0,1,239.55357,50)" />
    <path
       transform="matrix(0.24999999,0,0,1,266.33929,49.285715)"
       d="m 290.35714,415.21933 c 0,10.65121 -16.62943,19.28571 -37.14286,19.28571 -20.51343,0 -37.14286,-8.6345 -37.14286,-19.28571 0,-10.65121 16.62943,-19.28572 37.14286,-19.28572 20.51343,0 37.14286,8.63451 37.14286,19.28572 z"
       sodipodi:ry="19.285715"
       sodipodi:rx="37.142857"
       sodipodi:cy="415.21933"
       sodipodi:cx="253.21428"
       id="path3759"
       style="fill:#26003f;fill-opacity:1;stroke:none"
       sodipodi:type="arc" />
    <text
       xml:space="preserve"
       style="font-size:15.50616932px;font-style:normal;font-variant:normal;font-weight:normal;font-stretch:normal;line-height:125%;letter-spacing:0px;word-spacing:0px;fill:#ffffff;fill-opacity:1;stroke:none;font-family:Ubuntu;-inkscape-font-specification:Ubuntu"
       x="186.92166"
       y="556.20709"
       id="text3761"
       sodipodi:linespacing="125%"
       transform="matrix(0.99976141,0.02184293,-0.02184293,0.99976141,0,0)"><tspan
         sodipodi:role="line"
         id="tspan3763"
         x="186.92166"
         y="556.20709">0</tspan></text>
    <text
       transform="matrix(0.99976141,0.02184293,-0.02184293,0.99976141,0,0)"
       sodipodi:linespacing="125%"
       id="text3810"
       y="553.11304"
       x="230.43588"
       style="font-size:15.50616932px;font-style:normal;font-variant:normal;font-weight:normal;font-stretch:normal;line-height:125%;letter-spacing:0px;word-spacing:0px;fill:#ffffff;fill-opacity:1;stroke:none;font-family:Ubuntu;-inkscape-font-specification:Ubuntu"
       xml:space="preserve"><tspan
         y="553.11304"
         x="230.43588"
         id="tspan3812"
         sodipodi:role="line">1</tspan></text>
    <text
       xml:space="preserve"
       style="font-size:15.50616932px;font-style:normal;font-variant:normal;font-weight:normal;font-stretch:normal;line-height:125%;letter-spacing:0px;word-spacing:0px;fill:#ffffff;fill-opacity:1;stroke:none;font-family:Ubuntu;-inkscape-font-specification:Ubuntu"
       x="278.49823"
       y="545.63287"
       id="text3814"
       sodipodi:linespacing="125%"
       transform="matrix(0.99976141,0.02184293,-0.02184293,0.99976141,0,0)"><tspan
         sodipodi:role="line"
         id="tspan3816"
         x="278.49823"
         y="545.63287">2</tspan></text>
    <text
       transform="matrix(0.99976141,0.02184293,-0.02184293,0.99976141,0,0)"
       sodipodi:linespacing="125%"
       id="text3818"
       y="542.44519"
       x="326.29715"
       style="font-size:15.50616932px;font-style:normal;font-variant:normal;font-weight:normal;font-stretch:normal;line-height:125%;letter-spacing:0px;word-spacing:0px;fill:#ffffff;fill-opacity:1;stroke:none;font-family:Ubuntu;-inkscape-font-specification:Ubuntu"
       xml:space="preserve"><tspan
         y="542.44519"
         x="326.29715"
         id="tspan3820"
         sodipodi:role="line">3</tspan></text>
    <text
       xml:space="preserve"
       style="font-size:15.50616932px;font-style:normal;font-variant:normal;font-weight:normal;font-stretch:normal;line-height:125%;letter-spacing:0px;word-spacing:0px;fill:#ffffff;fill-opacity:1;stroke:none;font-family:Ubuntu;-inkscape-font-specification:Ubuntu"
       x="370.26984"
       y="543.98505"
       id="text3822"
       sodipodi:linespacing="125%"
       transform="matrix(0.99976141,0.02184293,-0.02184293,0.99976141,0,0)"><tspan
         sodipodi:role="line"
         id="tspan3824"
         x="370.26984"
         y="543.98505">4</tspan></text>
    <text
       transform="matrix(0.99976141,0.02184293,-0.02184293,0.99976141,0,0)"
       sodipodi:linespacing="125%"
       id="text3826"
       y="546.26245"
       x="413.18695"
       style="font-size:15.50616932px;font-style:normal;font-variant:normal;font-weight:normal;font-stretch:normal;line-height:125%;letter-spacing:0px;word-spacing:0px;fill:#ffffff;fill-opacity:1;stroke:none;font-family:Ubuntu;-inkscape-font-specification:Ubuntu"
       xml:space="preserve"><tspan
         y="546.26245"
         x="413.18695"
         id="tspan3828"
         sodipodi:role="line">5</tspan></text>
    <text
       xml:space="preserve"
       style="font-size:15.50616932px;font-style:normal;font-variant:normal;font-weight:normal;font-stretch:normal;line-height:125%;letter-spacing:0px;word-spacing:0px;fill:#ffffff;fill-opacity:1;stroke:none;font-family:Ubuntu;-inkscape-font-specification:Ubuntu"
       x="446.07526"
       y="547.33002"
       id="text3830"
       sodipodi:linespacing="125%"
       transform="matrix(0.99976141,0.02184293,-0.02184293,0.99976141,0,0)"><tspan
         sodipodi:role="line"
         id="tspan3832"
         x="446.07526"
         y="547.33002">6</tspan></text>
    <path
       d="m 378.80721,453.8468 c 0,34.31035 -27.81403,62.12438 -62.12438,62.12438 -34.31035,0 -62.12438,-27.81403 -62.12438,-62.12438 0,-34.31035 27.81403,-62.12438 62.12438,-62.12438 34.31035,0 62.12438,27.81403 62.12438,62.12438 z"
       sodipodi:ry="62.124382"
       sodipodi:rx="62.124382"
       sodipodi:cy="453.8468"
       sodipodi:cx="316.68283"
       id="path3847"
       style="fill:#b20000;fill-opacity:1;stroke:none"
       sodipodi:type="arc"
       transform="matrix(0.15204675,0,0,0.15779559,126.9251,545.2675)" />
    <path
       transform="matrix(0.15204675,0,0,0.15779559,176.92509,537.05321)"
       sodipodi:type="arc"
       style="fill:#b20000;fill-opacity:1;stroke:none"
       id="path3849"
       sodipodi:cx="316.68283"
       sodipodi:cy="453.8468"
       sodipodi:rx="62.124382"
       sodipodi:ry="62.124382"
       d="m 378.80721,453.8468 c 0,34.31035 -27.81403,62.12438 -62.12438,62.12438 -34.31035,0 -62.12438,-27.81403 -62.12438,-62.12438 0,-34.31035 27.81403,-62.12438 62.12438,-62.12438 34.31035,0 62.12438,27.81403 62.12438,62.12438 z" />
    <path
       d="m 378.80721,453.8468 c 0,34.31035 -27.81403,62.12438 -62.12438,62.12438 -34.31035,0 -62.12438,-27.81403 -62.12438,-62.12438 0,-34.31035 27.81403,-62.12438 62.12438,-62.12438 34.31035,0 62.12438,27.81403 62.12438,62.12438 z"
       sodipodi:ry="62.124382"
       sodipodi:rx="62.124382"
       sodipodi:cy="453.8468"
       sodipodi:cx="316.68283"
       id="path3851"
       style="fill:#b20000;fill-opacity:1;stroke:none"
       sodipodi:type="arc"
       transform="matrix(0.15204675,0,0,0.15779559,229.78224,537.41035)" />
    <path
       transform="matrix(0.15204675,0,0,0.15779559,269.42509,537.05321)"
       sodipodi:type="arc"
       style="fill:#b20000;fill-opacity:1;stroke:none"
       id="path3853"
       sodipodi:cx="316.68283"
       sodipodi:cy="453.8468"
       sodipodi:rx="62.124382"
       sodipodi:ry="62.124382"
       d="m 378.80721,453.8468 c 0,34.31035 -27.81403,62.12438 -62.12438,62.12438 -34.31035,0 -62.12438,-27.81403 -62.12438,-62.12438 0,-34.31035 27.81403,-62.12438 62.12438,-62.12438 34.31035,0 62.12438,27.81403 62.12438,62.12438 z" />
    <path
       d="m 378.80721,453.8468 c 0,34.31035 -27.81403,62.12438 -62.12438,62.12438 -34.31035,0 -62.12438,-27.81403 -62.12438,-62.12438 0,-34.31035 27.81403,-62.12438 62.12438,-62.12438 34.31035,0 62.12438,27.81403 62.12438,62.12438 z"
       sodipodi:ry="62.124382"
       sodipodi:rx="62.124382"
       sodipodi:cy="453.8468"
       sodipodi:cx="316.68283"
       id="path3855"
       style="fill:#b20000;fill-opacity:1;stroke:none"
       sodipodi:type="arc"
       transform="matrix(0.15204675,0,0,0.15779559,311.56795,537.7675)" />
    <path
       transform="matrix(0.15204675,0,0,0.15779559,354.78223,540.98178)"
       sodipodi:type="arc"
       style="fill:#b20000;fill-opacity:1;stroke:none"
       id="path3857"
       sodipodi:cx="316.68283"
       sodipodi:cy="453.8468"
       sodipodi:rx="62.124382"
       sodipodi:ry="62.124382"
       d="m 378.80721,453.8468 c 0,34.31035 -27.81403,62.12438 -62.12438,62.12438 -34.31035,0 -62.12438,-27.81403 -62.12438,-62.12438 0,-34.31035 27.81403,-62.12438 62.12438,-62.12438 34.31035,0 62.12438,27.81403 62.12438,62.12438 z" />
    <path
       d="m 378.80721,453.8468 c 0,34.31035 -27.81403,62.12438 -62.12438,62.12438 -34.31035,0 -62.12438,-27.81403 -62.12438,-62.12438 0,-34.31035 27.81403,-62.12438 62.12438,-62.12438 34.31035,0 62.12438,27.81403 62.12438,62.12438 z"
       sodipodi:ry="62.124382"
       sodipodi:rx="62.124382"
       sodipodi:cy="453.8468"
       sodipodi:cx="316.68283"
       id="path3859"
       style="fill:#b20000;fill-opacity:1;stroke:none"
       sodipodi:type="arc"
       transform="matrix(0.15204675,0,0,0.15779559,386.2108,538.12463)" />
  </g>
</svg>
