
<svg xmlns:dc="http://purl.org/dc/elements/1.1/" xmlns:cc="http://creativecommons.org/ns#" xmlns:rdf="http://www.w3.org/1999/02/22-rdf-syntax-ns#" xmlns:svg="http://www.w3.org/2000/svg" xmlns="http://www.w3.org/2000/svg" xmlns:sodipodi="http://sodipodi.sourceforge.net/DTD/sodipodi-0.dtd" xmlns:inkscape="http://www.inkscape.org/namespaces/inkscape" width="210mm" height="297mm" version="1.1" inkscape:version="0.48.2 r9819" inkscape:export-filename="/Users/obeid/elequent_javascript_cover.png" inkscape:export-xdpi="72.692383" inkscape:export-ydpi="72.692383"><defs/><metadata><rdf:RDF><cc:Work rdf:about=""><dc:format>image/svg+xml</dc:format><dc:type rdf:resource="http://purl.org/dc/dcmitype/StillImage"/><dc:title/></cc:Work></rdf:RDF></metadata><g inkscape:label="Layer 1" inkscape:groupmode="layer"><rect width="746.1" height="1053.7" x="-0" y="0.2" style="fill:#f7df1e;fill-opacity:1;stroke:#f7df1e;stroke-width:1.67390406;stroke-opacity:1"/><g style="font-size:112.52456665px;font-style:normal;font-variant:normal;font-weight:bold;font-stretch:normal;text-align:end;line-height:125%;letter-spacing:0px;word-spacing:0px;writing-mode:lr-tb;text-anchor:end;fill:#000000;fill-opacity:1;stroke:none;font-family:Neutra Text;-inkscape-font-specification:Neutra Text Bold"><path d="m 84.4 695.2 52.2 0 0 -13.8 -36.5 0 0 -11 30.7 0 0 -13.5 -30.7 0 0 -24.3 34.9 0 0 -13.8 -50.6 0 0 76.5" style=""/><path d="m 151.2 695.2 50.4 0 0 -13.8 -34.7 0 0 -62.7 -15.8 0 0 76.5" style=""/><path d="m 214.3 695.2 52.2 0 0 -13.8 -36.5 0 0 -11 30.7 0 0 -13.5 -30.7 0 0 -24.3 34.9 0 0 -13.8 -50.6 0 0 76.5" style=""/><path d="m 345.8 684.4 c 6.8 -7 10.8 -16.5 10.8 -27.5 0 -22.6 -17.6 -39.3 -39.6 -39.3 -22.1 0 -39.6 16.7 -39.6 39.3 0 22.6 17.6 39.3 39.6 39.3 6.4 0 12.4 -1.5 17.7 -3.9 l 11.4 13.1 10.5 -8.7 -10.7 -12.3 m -21 -3.4 c -2.4 0.8 -5 1.1 -7.8 1.1 -14 0 -23.4 -10.9 -23.4 -25.2 0 -14.3 9.5 -25.2 23.4 -25.2 14 0 23.4 10.9 23.4 25.2 0 6.4 -1.6 11.9 -4.5 16.1 l -9.7 -11.1 -10.6 8.7 9.1 10.5" style=""/><path d="m 400.8 696.2 c 17.4 0 30.8 -9.3 30.8 -28.7 l 0 -48.8 -15.8 0 0 47.9 c 0 11.1 -4.7 15.4 -15.1 15.4 -10.5 0 -15.3 -4.3 -15.3 -15.4 l 0 -47.9 -15.8 0 0 48.8 c 0 19.4 13.4 28.7 31.1 28.7" style=""/><path d="m 447.3 695.2 52.2 0 0 -13.8 -36.5 0 0 -11 30.7 0 0 -13.5 -30.7 0 0 -24.3 34.9 0 0 -13.8 -50.6 0 0 76.5" style=""/><path d="m 575.4 695.8 1.6 0 0 -77.2 -14.7 0 0 32.1 c 0 5.3 1 14 1 14 0 0 -5.3 -7 -9 -10.5 l -38.6 -36.2 -1.6 0 0 77.2 14.7 0 0 -32.1 c 0 -5.5 -1.1 -14 -1.1 -14 0 0 5.3 6.9 9.1 10.5 l 38.6 36.2" style=""/><path d="m 610.4 695.2 15.8 0 0 -62.7 21.8 0 0 -13.8 -59.4 0 0 13.8 21.8 0 0 62.7" style=""/><path d="m 560.4 836.8 c 14 0 23.5 -7.4 23.5 -23.7 l 0 -53.8 -15.8 0 0 53.6 c 0 7.9 -3.3 9.9 -8.4 9.9 -5.4 0 -7.7 -3.7 -10.1 -8.1 l -12.8 7.8 c 3.7 7.9 11 14.4 23.6 14.4" style=""/><path d="m 621.2 836.8 c 15 0 26.1 -7.8 26.1 -21.9 0 -13.2 -7.5 -19 -20.9 -24.8 l -3.9 -1.7 c -6.8 -2.9 -9.7 -4.8 -9.7 -9.6 0 -3.8 2.9 -6.8 7.5 -6.8 4.5 0 7.4 1.9 10.1 6.8 l 12.3 -7.9 c -5.2 -9.1 -12.4 -12.6 -22.4 -12.6 -14.1 0 -23.1 9 -23.1 20.8 0 12.8 7.5 18.9 18.9 23.7 l 3.9 1.7 c 7.2 3.2 11.5 5.1 11.5 10.5 0 4.5 -4.2 7.8 -10.7 7.8 -7.8 0 -12.2 -4.1 -15.5 -9.6 l -12.8 7.4 c 4.6 9.1 14.1 16.1 28.7 16.1" style=""/></g><g style="font-size:126.04995728px;font-style:normal;font-variant:normal;font-weight:bold;font-stretch:normal;line-height:107.00000525%;letter-spacing:0px;word-spacing:0px;fill:#ffffff;fill-opacity:1;stroke:none;font-family:Neutra Text;-inkscape-font-specification:Sans Bold"><path d="m 86 837 16.9 0 0 -32.1 c 0 -5.8 -0.6 -15 -0.6 -15 0 0 5.2 7.6 9.2 12.1 l 17 19 1.6 0 17 -19 c 4 -4.5 9.2 -12.1 9.2 -12.1 0 0 -0.6 9.2 -0.6 15 l 0 32.1 17 0 0 -86.6 -1.5 0 -41.6 46.4 -42.2 -46.4 -1.4 0 0 86.6" style=""/><path d="m 218.8 805.1 -12.5 0 c -13.2 0 -21.9 4.7 -21.9 16.1 0 12.5 9.1 16.9 18.9 16.9 7.2 0 11.8 -2.4 15.9 -8.6 l -0.4 7.4 16.9 0 0 -30.5 c 0 -16.9 -10.5 -24.3 -24.2 -24.3 -12.6 0 -18.3 3.9 -23.3 8.8 l 9.5 10.1 c 2.4 -2.1 5.8 -4.9 12.2 -4.9 5.7 0 8.7 2.8 8.9 8.9 m 0 10.1 0 2.1 c 0 4.5 -3.5 7.6 -10.5 7.6 -4.8 0 -7.3 -1.8 -7.3 -4.8 0 -3 1.9 -4.9 6.2 -4.9 l 11.6 0" style=""/><path d="m 248.7 837 17 0 0 -23.8 c 0 -11.5 4.2 -15 11.8 -15 2.4 0 4.4 0.6 6.6 1.6 l 5.4 -15.5 c -2.1 -1.1 -4.8 -2.1 -8.3 -2.1 -5.5 0 -11.8 2 -15.8 10.8 l 0.3 -9.7 -17 0 0 53.7" style=""/><path d="m 307.4 774.3 c 5.8 0 10.7 -4.4 10.7 -10.7 0 -6.2 -4.9 -10.6 -10.7 -10.6 -5.8 0 -10.8 4.4 -10.8 10.6 0 6.3 5 10.7 10.8 10.7 m -8.6 62.6 17 0 0 -53.7 -17 0 0 53.7" style=""/><path d="m 339.2 774.3 c 5.8 0 10.7 -4.4 10.7 -10.7 0 -6.2 -4.9 -10.6 -10.7 -10.6 -5.8 0 -10.8 4.4 -10.8 10.6 0 6.3 5 10.7 10.8 10.7 m -10.8 90.6 c 12.6 0 19.3 -7.1 19.3 -19.4 l 0 -62.3 -17 0 0 62.9 c 0 2.8 -1.3 4.3 -3.9 4.3 -1.4 0 -2.8 -0.8 -4.2 -2 l -8.4 10.1 c 2.5 3.2 7.9 6.4 14.2 6.4" style=""/><path d="m 361.5 837 17 0 0 -28.7 c 0 -6.8 4 -10.6 10.8 -10.6 6.1 0 8.9 3.4 8.9 9.5 l 0 29.9 17 0 0 -31 c 0 -15.3 -8.4 -23.8 -20.2 -23.8 -7.4 0 -13.7 3.5 -17 10 l 0.4 -8.8 -17 0 0 53.7" style=""/><path d="m 86 971.8 17.6 0 0 -26.1 36.7 0 0 26.1 17.6 0 0 -85.7 -17.6 0 0 43.9 -36.7 0 0 -43.9 -17.6 0 0 85.7" style=""/><path d="m 204 940 -12.5 0 c -13.2 0 -21.9 4.7 -21.9 16.1 0 12.5 9.1 16.9 18.9 16.9 7.2 0 11.8 -2.4 15.9 -8.6 l -0.4 7.4 16.9 0 0 -30.5 c 0 -16.9 -10.5 -24.3 -24.2 -24.3 -12.6 0 -18.3 3.9 -23.3 8.8 l 9.5 10.1 c 2.4 -2.1 5.8 -4.9 12.2 -4.9 5.7 0 8.7 2.8 8.9 8.9 m 0 10.1 0 2.1 c 0 4.5 -3.5 7.6 -10.5 7.6 -4.8 0 -7.3 -1.8 -7.3 -4.8 0 -3 1.9 -4.9 6.2 -4.9 l 11.6 0" style=""/><path d="m 255 973 1.6 0 28.7 -54.8 -17.3 0 -7.3 16 c -2.4 5.4 -4.2 14.2 -4.2 14.2 0 0 -1.9 -8.8 -4.4 -14.2 l -7.6 -16 -18.8 0 29.1 54.8" style=""/><path d="m 305.6 950.2 40.7 0 c 1.3 -18.8 -9.2 -33.2 -28.5 -33.2 -16.6 0 -29.6 11.6 -29.6 27.9 0 16.5 12.4 28.1 31.5 28.1 11.2 0 17.8 -3.4 22.9 -7.9 l -9.7 -10.5 c -2.6 1.9 -7.3 4.3 -13.5 4.3 -7.7 0 -12.2 -3.2 -13.9 -8.7 m -0.3 -9.8 c 1.4 -6.4 5.9 -9.5 12.6 -9.5 6.7 0 10.5 3.5 11.2 9.5 l -23.8 0" style=""/><path d="m 357.8 971.8 17 0 0 -23.8 c 0 -11.5 4.2 -15 11.8 -15 2.4 0 4.4 0.6 6.6 1.6 l 5.4 -15.5 c -2.1 -1.1 -4.8 -2.1 -8.3 -2.1 -5.5 0 -11.8 2 -15.8 10.8 l 0.3 -9.7 -17 0 0 53.7" style=""/><path d="m 440.8 973 c 13.1 0 24.3 -11.6 24.3 -28.1 0 -16.5 -10.8 -27.9 -23.9 -27.9 -8.2 0 -13.4 3.4 -16.9 8.7 l 0 -44.9 -17 0 0 91 17 0 -0.4 -7.8 c 3 5.7 8.7 8.9 16.9 8.9 m -4.9 -14.9 c -7.3 0 -12.1 -4.8 -12.1 -13.2 0 -7.9 4.8 -12.9 12.1 -12.9 7.2 0 11.7 4.9 11.7 12.9 0 8.4 -4.5 13.2 -11.7 13.2" style=""/><path d="m 492.2 950.2 40.7 0 c 1.3 -18.8 -9.2 -33.2 -28.5 -33.2 -16.6 0 -29.6 11.6 -29.6 27.9 0 16.5 12.4 28.1 31.5 28.1 11.2 0 17.8 -3.4 22.9 -7.9 l -9.7 -10.5 c -2.6 1.9 -7.3 4.3 -13.5 4.3 -7.7 0 -12.2 -3.2 -13.9 -8.7 m -0.3 -9.8 c 1.4 -6.4 5.9 -9.5 12.6 -9.5 6.7 0 10.5 3.5 11.2 9.5 l -23.8 0" style=""/><path d="m 561.4 956.3 4.5 -4.8 13.4 20.3 19.8 0 -21.1 -31.8 19 -21.9 -18.9 0 -17.6 20.7 c 0.5 -3.4 0.9 -7.6 0.9 -11.6 l 0 -46.4 -17 0 0 91 17 0 0 -15.5" style=""/><path d="m 619 950.2 40.7 0 c 1.3 -18.8 -9.2 -33.2 -28.5 -33.2 -16.6 0 -29.6 11.6 -29.6 27.9 0 16.5 12.4 28.1 31.5 28.1 11.2 0 17.8 -3.4 22.9 -7.9 l -9.7 -10.5 c -2.6 1.9 -7.3 4.3 -13.5 4.3 -7.7 0 -12.2 -3.2 -13.9 -8.7 m -0.3 -9.8 c 1.4 -6.4 5.9 -9.5 12.6 -9.5 6.7 0 10.5 3.5 11.2 9.5 l -23.8 0" style=""/></g></g></svg>
