<svg xmlns:dc="http://purl.org/dc/elements/1.1/" xmlns:cc="http://creativecommons.org/ns#" xmlns:rdf="http://www.w3.org/1999/02/22-rdf-syntax-ns#" xmlns:svg="http://www.w3.org/2000/svg" xmlns="http://www.w3.org/2000/svg" version="1.1" width="210mm" height="297mm"><defs/><metadata><rdf:RDF><cc:Work rdf:about=""><dc:format>image/svg+xml</dc:format><dc:type rdf:resource="http://purl.org/dc/dcmitype/StillImage"/><dc:title/></cc:Work></rdf:RDF></metadata><g><rect width="750" height="1060.6" x="-0" y="0.2" style="fill:#f7df1e;fill-opacity:1;stroke:#f7df1e;stroke-width:1.68376756;stroke-opacity:1"/><g transform="matrix(0.93770474,0,0,0.93770474,18.080683,62.457031)"><g transform="translate(-3.0212288e-4,0)"><g><g style="font-size:117.84597015px;font-style:normal;font-variant:normal;font-weight:bold;font-stretch:normal;text-align:end;line-height:125%;letter-spacing:0px;word-spacing:0px;writing-mode:lr-tb;text-anchor:end;fill:#000000;fill-opacity:1;stroke:none;font-family:Neutra Text;-inkscape-font-specification:Neutra Text Bold"><path d="m 70.7 677.4 54.7 0 0 -14.5 -38.2 0 0 -11.5 32.2 0 0 -14.1 -32.2 0 0 -25.5 36.5 0 0 -14.5 -53 0 0 80.1"/><path d="m 140.7 677.4 52.8 0 0 -14.5 -36.3 0 0 -65.6 -16.5 0 0 80.1"/><path d="m 240.9 678.5 c 23.1 0 41.5 -17.4 41.5 -41.1 0 -23.7 -18.4 -41.1 -41.5 -41.1 -23.1 0 -41.5 17.4 -41.5 41.1 0 23.7 18.4 41.1 41.5 41.1 m 0 -14.7 c -14.6 0 -24.5 -11.4 -24.5 -26.4 0 -15 9.9 -26.4 24.5 -26.4 14.6 0 24.5 11.4 24.5 26.4 0 15 -9.9 26.4 -24.5 26.4"/><path d="m 365.5 666.1 c 7.1 -7.3 11.3 -17.3 11.3 -28.8 0 -23.7 -18.4 -41.1 -41.5 -41.1 -23.1 0 -41.5 17.4 -41.5 41.1 0 23.7 18.4 41.1 41.5 41.1 6.7 0 13 -1.5 18.5 -4.1 l 11.9 13.7 11 -9.1 -11.2 -12.8 m -22 -3.5 c -2.5 0.8 -5.2 1.2 -8.1 1.2 -14.6 0 -24.5 -11.4 -24.5 -26.4 0 -15 9.9 -26.4 24.5 -26.4 14.6 0 24.5 11.4 24.5 26.4 0 6.7 -1.6 12.5 -4.7 16.9 l -10.1 -11.7 -11.1 9.1 9.5 11"/><path d="m 423.1 678.5 c 18.3 0 32.3 -9.8 32.3 -30.1 l 0 -51.1 -16.5 0 0 50.2 c 0 11.7 -4.9 16.1 -15.8 16.1 -11 0 -16 -4.5 -16 -16.1 l 0 -50.2 -16.5 0 0 51.1 c 0 20.3 14 30.1 32.5 30.1"/><path d="m 471.7 677.4 54.7 0 0 -14.5 -38.2 0 0 -11.5 32.2 0 0 -14.1 -32.2 0 0 -25.5 36.5 0 0 -14.5 -53 0 0 80.1"/><path d="m 605.9 678.1 1.6 0 0 -80.8 -15.4 0 0 33.6 c 0 5.5 1.1 14.6 1.1 14.6 0 0 -5.5 -7.3 -9.4 -11 l -40.4 -37.9 -1.6 0 0 80.8 15.4 0 0 -33.6 c 0 -5.8 -1.2 -14.6 -1.2 -14.6 0 0 5.5 7.2 9.5 11 l 40.4 37.9"/><path d="m 642.6 677.4 16.5 0 0 -65.6 22.9 0 0 -14.5 -62.2 0 0 14.5 22.9 0 0 65.6"/><path d="m 590.2 825.8 c 14.6 0 24.6 -7.8 24.6 -24.9 l 0 -56.3 -16.5 0 0 56.1 c 0 8.2 -3.4 10.4 -8.8 10.4 -5.7 0 -8 -3.9 -10.6 -8.5 l -13.4 8.1 c 3.9 8.2 11.5 15.1 24.7 15.1"/><path d="m 653.8 825.8 c 15.7 0 27.3 -8.1 27.3 -23 0 -13.8 -7.9 -19.9 -21.9 -25.9 l -4.1 -1.8 c -7.1 -3.1 -10.1 -5.1 -10.1 -10 0 -4 3.1 -7.1 7.9 -7.1 4.7 0 7.8 2 10.6 7.1 l 12.8 -8.2 c -5.4 -9.5 -13 -13.2 -23.5 -13.2 -14.7 0 -24.2 9.4 -24.2 21.8 0 13.4 7.9 19.8 19.8 24.9 l 4.1 1.8 c 7.5 3.3 12 5.3 12 11 0 4.7 -4.4 8.1 -11.2 8.1 -8.1 0 -12.7 -4.2 -16.3 -10 l -13.4 7.8 c 4.8 9.5 14.7 16.9 30.1 16.9"/></g><g style="font-size:134.42393494px;font-style:normal;font-variant:normal;font-weight:bold;font-stretch:normal;line-height:107.00000525%;letter-spacing:0px;word-spacing:0px;fill:#ffffff;fill-opacity:1;stroke:none;font-family:Neutra Text;-inkscape-font-specification:Sans Bold"><path d="m 72.5 826 18 0 0 -34.3 c 0 -6.2 -0.7 -16 -0.7 -16 0 0 5.5 8.1 9.8 12.9 l 18.1 20.3 1.7 0 18.1 -20.3 c 4.3 -4.8 9.8 -12.9 9.8 -12.9 0 0 -0.7 9.8 -0.7 16 l 0 34.3 18.1 0 0 -92.3 -1.6 0 -44.4 49.5 -45 -49.5 -1.5 0 0 92.3"/><path d="m 214.1 792 -13.3 0 c -14.1 0 -23.4 5 -23.4 17.2 0 13.3 9.7 18 20.2 18 7.7 0 12.6 -2.6 16.9 -9.1 l -0.4 7.9 18 0 0 -32.5 c 0 -18 -11.2 -25.9 -25.8 -25.9 -13.4 0 -19.5 4.2 -24.9 9.4 l 10.1 10.8 c 2.6 -2.3 6.2 -5.2 13 -5.2 6 0 9.3 3 9.5 9.5 m 0 10.8 0 2.3 c 0 4.8 -3.8 8.1 -11.2 8.1 -5.1 0 -7.8 -1.9 -7.8 -5.1 0 -3.2 2 -5.2 6.6 -5.2 l 12.4 0"/><path d="m 245.9 826 18.1 0 0 -25.4 c 0 -12.2 4.4 -16 12.6 -16 2.6 0 4.7 0.7 7 1.7 l 5.8 -16.5 c -2.3 -1.2 -5.1 -2.3 -8.9 -2.3 -5.9 0 -12.6 2.2 -16.8 11.6 l 0.3 -10.4 -18.1 0 0 57.3"/><path d="m 308.5 759.2 c 6.2 0 11.4 -4.7 11.4 -11.4 0 -6.6 -5.2 -11.3 -11.4 -11.3 -6.2 0 -11.6 4.7 -11.6 11.3 0 6.7 5.4 11.4 11.6 11.4 m -9.1 66.8 18.1 0 0 -57.3 -18.1 0 0 57.3"/><path d="m 342.4 759.2 c 6.2 0 11.4 -4.7 11.4 -11.4 0 -6.6 -5.2 -11.3 -11.4 -11.3 -6.2 0 -11.6 4.7 -11.6 11.3 0 6.7 5.4 11.4 11.6 11.4 m -11.6 96.7 c 13.4 0 20.6 -7.5 20.6 -20.7 l 0 -66.4 -18.1 0 0 67.1 c 0 3 -1.3 4.6 -4.2 4.6 -1.5 0 -3 -0.8 -4.4 -2.2 l -9 10.8 c 2.7 3.4 8.5 6.9 15.2 6.9"/><path d="m 366.2 826 18.1 0 0 -30.6 c 0 -7.3 4.3 -11.3 11.6 -11.3 6.5 0 9.5 3.6 9.5 10.1 l 0 31.9 18.1 0 0 -33.1 c 0 -16.3 -9 -25.4 -21.5 -25.4 -7.9 0 -14.7 3.8 -18.1 10.6 l 0.4 -9.4 -18.1 0 0 57.3"/><path d="m 72.5 969.8 18.8 0 0 -27.8 39.1 0 0 27.8 18.8 0 0 -91.4 -18.8 0 0 46.8 -39.1 0 0 -46.8 -18.8 0 0 91.4"/><path d="m 198.3 935.8 -13.3 0 c -14.1 0 -23.4 5 -23.4 17.2 0 13.3 9.7 18 20.2 18 7.7 0 12.6 -2.6 16.9 -9.1 l -0.4 7.9 18 0 0 -32.5 c 0 -18 -11.2 -25.9 -25.8 -25.9 -13.4 0 -19.5 4.2 -24.9 9.4 l 10.1 10.8 c 2.6 -2.3 6.2 -5.2 13 -5.2 6 0 9.3 3 9.5 9.5 m 0 10.8 0 2.3 c 0 4.8 -3.8 8.1 -11.2 8.1 -5.1 0 -7.8 -1.9 -7.8 -5.1 0 -3.2 2 -5.2 6.6 -5.2 l 12.4 0"/><path d="m 252.7 971 1.7 0 30.6 -58.5 -18.4 0 -7.8 17.1 c -2.6 5.8 -4.4 15.2 -4.4 15.2 0 0 -2 -9.4 -4.7 -15.2 l -8.1 -17.1 -20 0 31.1 58.5"/><path d="m 306.6 946.7 43.4 0 c 1.3 -20 -9.8 -35.4 -30.4 -35.4 -17.7 0 -31.6 12.4 -31.6 29.7 0 17.6 13.2 30 33.6 30 12 0 19 -3.6 24.5 -8.5 l -10.4 -11.2 c -2.8 2 -7.8 4.6 -14.4 4.6 -8.2 0 -13 -3.4 -14.8 -9.3 m -0.3 -10.5 c 1.5 -6.9 6.3 -10.1 13.4 -10.1 7.1 0 11.2 3.8 12 10.1 l -25.4 0"/><path d="m 362.3 969.8 18.1 0 0 -25.4 c 0 -12.2 4.4 -16 12.6 -16 2.6 0 4.7 0.7 7 1.7 l 5.8 -16.5 c -2.3 -1.2 -5.1 -2.3 -8.9 -2.3 -5.9 0 -12.6 2.2 -16.8 11.6 l 0.3 -10.4 -18.1 0 0 57.3"/><path d="m 450.8 971 c 14 0 25.9 -12.4 25.9 -30 0 -17.6 -11.6 -29.7 -25.5 -29.7 -8.7 0 -14.2 3.6 -18 9.3 l 0 -47.9 -18.1 0 0 97.1 18.1 0 -0.4 -8.3 c 3.2 6 9.3 9.5 18 9.5 m -5.2 -15.9 c -7.8 0 -12.9 -5.1 -12.9 -14.1 0 -8.5 5.1 -13.7 12.9 -13.7 7.7 0 12.5 5.2 12.5 13.7 0 9 -4.8 14.1 -12.5 14.1"/><path d="m 505.6 946.7 43.4 0 c 1.3 -20 -9.8 -35.4 -30.4 -35.4 -17.7 0 -31.6 12.4 -31.6 29.7 0 17.6 13.2 30 33.6 30 12 0 19 -3.6 24.5 -8.5 l -10.4 -11.2 c -2.8 2 -7.8 4.6 -14.4 4.6 -8.2 0 -13 -3.4 -14.8 -9.3 m -0.3 -10.5 c 1.5 -6.9 6.3 -10.1 13.4 -10.1 7.1 0 11.2 3.8 12 10.1 l -25.4 0"/><path d="m 579.4 953.3 4.8 -5.1 14.2 21.6 21.1 0 -22.4 -33.9 20.3 -23.4 -20.2 0 -18.8 22 c 0.5 -3.6 0.9 -8.1 0.9 -12.4 l 0 -49.5 -18.1 0 0 97.1 18.1 0 0 -16.5"/><path d="m 640.8 946.7 43.4 0 c 1.3 -20 -9.8 -35.4 -30.4 -35.4 -17.7 0 -31.6 12.4 -31.6 29.7 0 17.6 13.2 30 33.6 30 12 0 19 -3.6 24.5 -8.5 L 670 951.4 c -2.8 2 -7.8 4.6 -14.4 4.6 -8.2 0 -13 -3.4 -14.8 -9.3 m -0.3 -10.5 c 1.5 -6.9 6.3 -10.1 13.4 -10.1 7.1 0 11.2 3.8 12 10.1 l -25.4 0"/></g></g></g></g></g></svg>
