<?xml version="1.0" encoding="UTF-8" standalone="no"?>
<!-- Created with Inkscape (http://www.inkscape.org/) -->

<svg
   xmlns:dc="http://purl.org/dc/elements/1.1/"
   xmlns:cc="http://creativecommons.org/ns#"
   xmlns:rdf="http://www.w3.org/1999/02/22-rdf-syntax-ns#"
   xmlns:svg="http://www.w3.org/2000/svg"
   xmlns="http://www.w3.org/2000/svg"
   xmlns:sodipodi="http://sodipodi.sourceforge.net/DTD/sodipodi-0.dtd"
   xmlns:inkscape="http://www.inkscape.org/namespaces/inkscape"
   width="321.87982"
   height="248.49751"
   id="svg2"
   version="1.1"
   inkscape:version="0.48.4 r9939"
   sodipodi:docname="New document 1">
  <defs
     id="defs4" />
  <sodipodi:namedview
     id="base"
     pagecolor="#ffffff"
     bordercolor="#666666"
     borderopacity="1.0"
     inkscape:pageopacity="0.0"
     inkscape:pageshadow="2"
     inkscape:zoom="2.8"
     inkscape:cx="164.20675"
     inkscape:cy="109.49197"
     inkscape:document-units="px"
     inkscape:current-layer="layer1"
     showgrid="false"
     fit-margin-top="0"
     fit-margin-left="0"
     fit-margin-right="0"
     fit-margin-bottom="0"
     inkscape:window-width="1600"
     inkscape:window-height="875"
     inkscape:window-x="0"
     inkscape:window-y="25"
     inkscape:window-maximized="0" />
  <metadata
     id="metadata7">
    <rdf:RDF>
      <cc:Work
         rdf:about="">
        <dc:format>image/svg+xml</dc:format>
        <dc:type
           rdf:resource="http://purl.org/dc/dcmitype/StillImage" />
        <dc:title></dc:title>
      </cc:Work>
    </rdf:RDF>
  </metadata>
  <g
     inkscape:label="Layer 1"
     inkscape:groupmode="layer"
     id="layer1"
     transform="translate(-154.1861,-391.72242)">
    <path
       sodipodi:type="arc"
       style="fill:#008080;fill-opacity:1;stroke:none"
       id="path2985"
       sodipodi:cx="316.68283"
       sodipodi:cy="453.8468"
       sodipodi:rx="62.124382"
       sodipodi:ry="62.124382"
       d="m 378.80721,453.8468 c 0,34.31035 -27.81403,62.12438 -62.12438,62.12438 -34.31035,0 -62.12438,-27.81403 -62.12438,-62.12438 0,-34.31035 27.81403,-62.12438 62.12438,-62.12438 34.31035,0 62.12438,27.81403 62.12438,62.12438 z" />
    <path
       style="fill:#008080;stroke:none"
       d="m 264.65997,486.67676 c 11.11167,22.22336 0.37771,28.94997 -14.96452,30.92432 -15.34224,1.97434 -27.43561,4.19643 -40.11418,5.625 -12.67857,1.42856 -40.88579,5.87708 -53.00763,34.16136 -12.12183,28.28427 25.85787,32.30385 25.85787,32.30385 0,0 -22.82741,-27.25309 16.56854,-39.37492 39.39595,-12.12184 84.85282,3.03046 84.85282,3.03046 0,0 21.2132,4.04061 26.26396,34.34518 5.05076,30.30458 -4.04061,52.52793 -4.04061,52.52793 0,0 32.68202,-34.01778 35.83504,-58.69037 2.18062,-17.0635 9.62183,-42.32488 36.89594,-47.37564 27.27412,-5.05077 49.49748,-2.02031 72.73099,15.15228 23.44556,17.32933 24.24366,32.32489 24.24366,32.32489 0,0 4.32132,-44.03759 -20.74403,-58.40502 -30.97513,-17.75491 -38.36249,-6.91907 -67.24077,-24.22263 -13.9178,-8.33941 -17.8403,-13.60147 -13.49839,-24.44247 2.89266,-7.22245 -31.4911,-22.52527 -31.4911,-22.52527 z"
       id="path2987"
       inkscape:connector-curvature="0"
       sodipodi:nodetypes="cszscscscssscssscc" />
    <path
       sodipodi:type="arc"
       style="fill:#000080;fill-opacity:1;stroke:none"
       id="path3757"
       sodipodi:cx="253.21428"
       sodipodi:cy="415.21933"
       sodipodi:rx="37.142857"
       sodipodi:ry="19.285715"
       d="m 290.35714,415.21933 c 0,10.65121 -16.62943,19.28571 -37.14286,19.28571 -20.51343,0 -37.14286,-8.6345 -37.14286,-19.28571 0,-10.65121 16.62943,-19.28572 37.14286,-19.28572 20.51343,0 37.14286,8.63451 37.14286,19.28572 z"
       transform="matrix(0.24999999,0,0,1,214.91071,39.642857)" />
    <path
       transform="matrix(0.24999999,0,0,1,242.05357,40.357143)"
       d="m 290.35714,415.21933 c 0,10.65121 -16.62943,19.28571 -37.14286,19.28571 -20.51343,0 -37.14286,-8.6345 -37.14286,-19.28571 0,-10.65121 16.62943,-19.28572 37.14286,-19.28572 20.51343,0 37.14286,8.63451 37.14286,19.28572 z"
       sodipodi:ry="19.285715"
       sodipodi:rx="37.142857"
       sodipodi:cy="415.21933"
       sodipodi:cx="253.21428"
       id="path3759"
       style="fill:#000080;fill-opacity:1;stroke:none"
       sodipodi:type="arc" />
    <text
       xml:space="preserve"
       style="font-size:15.50616932px;font-style:normal;font-variant:normal;font-weight:normal;font-stretch:normal;line-height:125%;letter-spacing:0px;word-spacing:0px;fill:#ffffff;fill-opacity:1;stroke:none;font-family:Ubuntu;-inkscape-font-specification:Ubuntu"
       x="133.0323"
       y="557.75061"
       id="text3761"
       sodipodi:linespacing="125%"
       transform="matrix(0.99481946,-0.1016575,0.1016575,0.99481946,0,0)"><tspan
         sodipodi:role="line"
         id="tspan3763"
         x="133.0323"
         y="557.75061">squirrel</tspan></text>
    <text
       sodipodi:linespacing="125%"
       id="text3765"
       y="-250.56949"
       x="576.00397"
       style="font-size:15.50616932px;font-style:normal;font-variant:normal;font-weight:normal;font-stretch:normal;line-height:125%;letter-spacing:0px;word-spacing:0px;fill:#ffffff;fill-opacity:1;stroke:none;font-family:Ubuntu;-inkscape-font-specification:Ubuntu"
       xml:space="preserve"
       transform="matrix(0.11587615,0.99326367,-0.99326367,0.11587615,0,0)"><tspan
         y="-250.56949"
         x="576.00397"
         id="tspan3767"
         sodipodi:role="line">events</tspan></text>
    <text
       transform="matrix(0.9923899,0.12313527,-0.12313527,0.9923899,0,0)"
       sodipodi:linespacing="125%"
       id="text3769"
       y="471.37326"
       x="457.72647"
       style="font-size:15.50616932px;font-style:normal;font-variant:normal;font-weight:normal;font-stretch:normal;line-height:125%;letter-spacing:0px;word-spacing:0px;fill:#ffffff;fill-opacity:1;stroke:none;font-family:Ubuntu;-inkscape-font-specification:Ubuntu"
       xml:space="preserve"><tspan
         y="471.37326"
         x="457.72647"
         id="tspan3771"
         sodipodi:role="line">etc</tspan></text>
    <path
       d="m 378.80721,453.8468 c 0,34.31035 -27.81403,62.12438 -62.12438,62.12438 -34.31035,0 -62.12438,-27.81403 -62.12438,-62.12438 0,-34.31035 27.81403,-62.12438 62.12438,-62.12438 34.31035,0 62.12438,27.81403 62.12438,62.12438 z"
       sodipodi:ry="62.124382"
       sodipodi:rx="62.124382"
       sodipodi:cy="453.8468"
       sodipodi:cx="316.68283"
       id="path3777"
       style="fill:#008000;fill-opacity:1;stroke:none"
       sodipodi:type="arc"
       transform="matrix(0.41649319,0,0,0.27852113,56.750875,442.97658)" />
    <text
       transform="matrix(0.99777425,0.06668246,-0.06668246,0.99777425,0,0)"
       sodipodi:linespacing="125%"
       id="text3779"
       y="560.15991"
       x="209.16458"
       style="font-size:15.50616932px;font-style:normal;font-variant:normal;font-weight:normal;font-stretch:normal;line-height:125%;letter-spacing:0px;word-spacing:0px;fill:#ffffff;fill-opacity:1;stroke:none;font-family:Ubuntu;-inkscape-font-specification:Ubuntu"
       xml:space="preserve"><tspan
         y="560.15991"
         x="209.16458"
         id="tspan3781"
         sodipodi:role="line">false</tspan></text>
    <path
       transform="matrix(0.44517807,0.13555376,-0.08113015,0.26644309,337.1661,388.38776)"
       sodipodi:type="arc"
       style="fill:#a20000;fill-opacity:1;stroke:none"
       id="path3783"
       sodipodi:cx="316.68283"
       sodipodi:cy="453.8468"
       sodipodi:rx="62.124382"
       sodipodi:ry="62.124382"
       d="m 378.80721,453.8468 c 0,34.31035 -27.81403,62.12438 -62.12438,62.12438 -34.31035,0 -62.12438,-27.81403 -62.12438,-62.12438 0,-34.31035 27.81403,-62.12438 62.12438,-62.12438 34.31035,0 62.12438,27.81403 62.12438,62.12438 z" />
    <text
       xml:space="preserve"
       style="font-size:15.50616932px;font-style:normal;font-variant:normal;font-weight:normal;font-stretch:normal;line-height:125%;letter-spacing:0px;word-spacing:0px;fill:#ffffff;fill-opacity:1;stroke:none;font-family:Ubuntu;-inkscape-font-specification:Ubuntu"
       x="575.80054"
       y="378.36142"
       id="text3785"
       sodipodi:linespacing="125%"
       transform="matrix(0.94179334,0.33619235,-0.33619235,0.94179334,0,0)"><tspan
         sodipodi:role="line"
         id="tspan3787"
         x="575.80054"
         y="378.36142">&quot;value&quot;</tspan></text>
  </g>
</svg>
